<?xml version="1.0" encoding="utf-8"?>
<!-- Generator: Adobe Illustrator 20.1.0, SVG Export Plug-In . SVG Version: 6.00 Build 0)  -->
<svg version="1.1" id="Layer_1" xmlns="http://www.w3.org/2000/svg" xmlns:xlink="http://www.w3.org/1999/xlink" x="0px" y="0px"
	 viewBox="0 0 440 138" style="enable-background:new 0 0 440 138;" xml:space="preserve">
<style type="text/css">
	.st0{fill:#5E5E5E;}
	.st1{fill:url(#SVGID_1_);}
	.st2{fill:#FFFFFF;}
	.st3{fill:url(#SVGID_2_);}
</style>
<rect x="580" y="-118.9" class="st0" width="708.7" height="351.5"/>
<g>
	<g>
		<path class="st0" d="M39.6,36.5c-5.4,0-8.2,3.6-10.2,7.1c-0.6-2.3-0.7-6.1-3.7-6.1c-2.3,0-10.5,0.7-10.5,3c0,1.9,1.1,3.8,1.1,13.2
			v29.6c0,2,1.7,3,5.6,3h2.6c3.9,0,5.6-1,5.6-3v-30c1.1-1.9,3.6-4.7,7.5-4.7c1.9,0,3.1,0.7,4.4,0.7c1.9,0,2.9-6.1,2.9-7.9
			C45,39.7,44.2,36.5,39.6,36.5z"/>
		<path class="st0" d="M90.2,60.6c0-13-5.5-24.1-20.2-24.1c-13.4,0-22.7,7.1-22.7,25.5c0,15.1,7.5,24.9,24.4,24.9
			c5.2,0,16.8-2.1,16.8-6.7c0-1.9-2.8-7.1-4.9-7.1c-1.3,0-5.4,2.9-11.3,2.9c-6.1,0-10.1-2.3-10.8-9.8h23.8
			C86.6,66.2,90.2,62.2,90.2,60.6z M61.6,56.9c1.1-7.2,4.5-9.4,8.4-9.4c4.7,0,6.7,4,6.7,9.4H61.6z"/>
		<path class="st0" d="M117.9,75.6c-0.6,0-1.7,0.4-2.5,0.4c-2.4,0-3.4-1.2-3.4-4V18.7c0-2-1.7-3-5.6-3h-2.6c-3.9,0-5.6,1-5.6,3v53.1
			c0,10.4,4.9,15.1,13.6,15.1c2.9,0,9-0.3,9-4.6C120.8,81.6,119.8,75.6,117.9,75.6z"/>
		<path class="st0" d="M135.5,37.1h-2.6c-3.9,0-5.6,1-5.6,3v43.3c0,2,1.7,3,5.6,3h2.6c3.9,0,5.6-1,5.6-3V40.1
			C141.1,38.1,139.4,37.1,135.5,37.1z"/>
		<path class="st0" d="M135.5,15.7h-2.6c-3.9,0-5.6,1-5.6,3v7.6c0,2,1.7,3,5.6,3h2.6c3.9,0,5.6-1,5.6-3v-7.6
			C141.1,16.7,139.4,15.7,135.5,15.7z"/>
		<path class="st0" d="M193.5,60.6c0-13-5.5-24.1-20.2-24.1c-13.4,0-22.7,7.1-22.7,25.5c0,15.1,7.5,24.9,24.4,24.9
			c5.2,0,16.8-2.1,16.8-6.7c0-1.9-2.8-7.1-4.9-7.1c-1.3,0-5.4,2.9-11.3,2.9c-6.1,0-10.1-2.3-10.8-9.8h23.8
			C189.9,66.2,193.5,62.2,193.5,60.6z M164.9,56.9c1.1-7.2,4.5-9.4,8.4-9.4c4.7,0,6.7,4,6.7,9.4H164.9z"/>
		<path class="st0" d="M294.8,37.1h-0.4c-3,0-4.8,0.7-5.1,2l-7.6,28.8l-6.9-28.8c-0.3-1.3-2.5-2-5.1-2h-2.2c-3,0-4.9,0.7-5.1,2
			l-7.1,28.8l-7.4-28.8c-0.1-0.3-0.3-0.6-0.6-0.8c-0.5-0.6-1.1-0.9-2-0.9h-1.5c-0.4,0-0.8,0-1.2,0H217v-7.2c0-2.8,0.9-4,3.4-4
			c0.9,0,2.2,0.4,2.9,0.4c1.9,0,2.9-6,2.9-6.7c0-4.3-6.4-4.6-9.3-4.6c-8.8,0-13.6,4.8-13.6,15.1v7h-1.7c-2,0-2.8,1.4-2.8,4.7v1.6
			c0,3.3,0.8,4.7,2.8,4.7h1.7v35.1c0,2,1.7,3,5.6,3h2.6c3.9,0,5.6-1,5.6-3V48.4h20l9.8,36.2c0.4,1.3,2.1,2,5.1,2h4.6
			c2.6,0,4.9-0.7,5.1-2l6.4-26.3l6.7,26.3c0.4,1.3,2.1,2,5.1,2h4.6c2.6,0,4.8-0.7,5.1-2l11-43.5c0.1-0.6,0.2-1,0.2-1.4
			C300.6,38,298.8,37.1,294.8,37.1z"/>
		<path class="st0" d="M348.2,60.6c0-13-5.5-24.1-20.2-24.1c-13.4,0-22.7,7.1-22.7,25.5c0,15.1,7.5,24.9,24.4,24.9
			c5.2,0,16.8-2.1,16.8-6.7c0-1.9-2.8-7.1-4.9-7.1c-1.3,0-5.4,2.9-11.3,2.9c-6.1,0-10.1-2.3-10.8-9.8h23.8
			C344.6,66.2,348.2,62.2,348.2,60.6z M319.6,56.9c1.1-7.2,4.5-9.4,8.4-9.4c4.7,0,6.7,4,6.7,9.4H319.6z"/>
		<path class="st0" d="M379.8,36.5c-4.4,0-7.6,1.5-9.5,2.9V18.6c0-2-1.7-3-5.6-3h-2.6c-3.9,0-5.6,1-5.6,3v64.7c0,2,1.7,3,5.6,3h1.1
			c3,0,5-0.4,5.4-2.4l0.9-4c2.1,4,6.7,7,12.5,7c10.1,0,17.5-9,17.5-25.2C399.5,46.4,392.4,36.5,379.8,36.5z M377.9,75.6
			c-3.6,0-6-2.6-7.7-5.5V49.3c1.5-0.8,3.6-1.8,6.5-1.8c5.9,0,8.7,4.9,8.7,14.2C385.5,70.7,383.1,75.6,377.9,75.6z"/>
	</g>
	<g>
		
			<linearGradient id="SVGID_1_" gradientUnits="userSpaceOnUse" x1="221.0122" y1="572.39" x2="424.8187" y2="572.39" gradientTransform="matrix(1 0 0 1 0 -488.89)">
			<stop  offset="0" style="stop-color:#EB5C6D"/>
			<stop  offset="0.2429" style="stop-color:#C8738B"/>
			<stop  offset="0.4999" style="stop-color:#9D81A6"/>
			<stop  offset="0.7211" style="stop-color:#7386B9"/>
			<stop  offset="0.8949" style="stop-color:#4F88C4"/>
			<stop  offset="1" style="stop-color:#3D88C7"/>
		</linearGradient>
		<path class="st1" d="M424.7,61.9c-1.2-9.4-12.8-16.6-20-17.6c2.6,2,5.4,3.7,7.8,6c4,3.8,5.8,8.5,4.4,14c-1.3,5.3-4.7,9.5-8.6,13.2
			c-9.1,8.6-20,14.2-31.4,18.9c-20.6,8.4-42.1,13.1-64.3,15.1c-14.6,1.3-29.1,1.1-43.4-1.5c-8.2-1.5-16.1-3.7-23-8.6
			c-7-4.9-9.2-11-6.9-18.1l-3-10.9c0,0,0,0-0.1-0.1c-3.1,2.3-9.1,7.3-12.7,14.2c-4.5,8.5-2.8,16.6,4.7,22.7
			c6.8,5.6,14.9,8.3,23.3,10.1c17.9,4,36,3.9,54.1,2.3c19.6-1.7,38.8-5.5,57.4-11.6c15.5-5,30.4-11.2,43.8-20.7
			c5.6-4,10.8-8.5,14.4-14.4C423.9,71,425.3,66.7,424.7,61.9z"/>
	</g>
</g>
<g>
	<g>
		<path class="st2" d="M761.1,38.8c-5.4,0-8.2,3.6-10.2,7.1c-0.6-2.3-0.7-6.1-3.7-6.1c-2.3,0-10.5,0.7-10.5,3
			c0,1.9,1.1,3.8,1.1,13.2v29.6c0,2,1.7,3,5.6,3h2.6c3.9,0,5.6-1,5.6-3v-30c1.1-1.9,3.6-4.7,7.5-4.7c1.9,0,3.1,0.7,4.4,0.7
			c1.9,0,2.9-6.1,2.9-7.9C766.4,42,765.6,38.8,761.1,38.8z"/>
		<path class="st2" d="M811.6,62.9c0-13-5.5-24.1-20.2-24.1c-13.4,0-22.7,7.1-22.7,25.5c0,15.1,7.5,24.9,24.4,24.9
			c5.2,0,16.8-2.1,16.8-6.7c0-1.9-2.8-7.1-4.9-7.1c-1.3,0-5.4,2.9-11.3,2.9c-6.1,0-10.1-2.3-10.8-9.8h23.8
			C808,68.5,811.6,64.5,811.6,62.9z M783,59.2c1.1-7.2,4.5-9.4,8.4-9.4c4.7,0,6.7,4,6.7,9.4H783z"/>
		<path class="st2" d="M839.3,77.9c-0.6,0-1.7,0.4-2.5,0.4c-2.4,0-3.4-1.2-3.4-4V21c0-2-1.7-3-5.6-3h-2.6c-3.9,0-5.6,1-5.6,3v53.1
			c0,10.4,4.9,15.1,13.6,15.1c2.9,0,9-0.3,9-4.6C842.2,83.9,841.2,77.9,839.3,77.9z"/>
		<path class="st2" d="M856.9,39.4h-2.6c-3.9,0-5.6,1-5.6,3v43.3c0,2,1.7,3,5.6,3h2.6c3.9,0,5.6-1,5.6-3V42.4
			C862.5,40.4,860.8,39.4,856.9,39.4z"/>
		<path class="st2" d="M856.9,18h-2.6c-3.9,0-5.6,1-5.6,3v7.6c0,2,1.7,3,5.6,3h2.6c3.9,0,5.6-1,5.6-3V21C862.5,19,860.8,18,856.9,18
			z"/>
		<path class="st2" d="M914.9,62.9c0-13-5.5-24.1-20.2-24.1c-13.4,0-22.7,7.1-22.7,25.5c0,15.1,7.5,24.9,24.4,24.9
			c5.2,0,16.8-2.1,16.8-6.7c0-1.9-2.8-7.1-4.9-7.1c-1.3,0-5.4,2.9-11.3,2.9c-6.1,0-10.1-2.3-10.8-9.8H910
			C911.3,68.5,914.9,64.5,914.9,62.9z M886.3,59.2c1.1-7.2,4.5-9.4,8.4-9.4c4.7,0,6.7,4,6.7,9.4H886.3z"/>
		<path class="st2" d="M1016.2,39.4h-0.4c-3,0-4.8,0.7-5.1,2l-7.6,28.8l-6.9-28.8c-0.3-1.3-2.5-2-5.1-2h-2.2c-3,0-4.9,0.7-5.1,2
			l-7.1,28.8l-7.4-28.8c-0.1-0.3-0.3-0.6-0.6-0.8c-0.5-0.6-1.1-0.9-2-0.9H965c-0.4,0-0.8,0-1.2,0h-25.6v-7.2c0-2.8,0.9-4,3.4-4
			c0.9,0,2.2,0.4,2.9,0.4c1.9,0,2.9-6,2.9-6.7c0-4.3-6.4-4.6-9.3-4.6c-8.8,0-13.6,4.8-13.6,15.1v7h-1.7c-2,0-2.8,1.4-2.8,4.7V46
			c0,3.3,0.8,4.7,2.8,4.7h1.7v35.1c0,2,1.7,3,5.6,3h2.6c3.9,0,5.6-1,5.6-3V50.7h20l9.8,36.2c0.4,1.3,2.1,2,5.1,2h4.6
			c2.6,0,4.9-0.7,5.1-2l6.4-26.3l6.7,26.3c0.4,1.3,2.1,2,5.1,2h4.6c2.6,0,4.8-0.7,5.1-2l11-43.5c0.1-0.6,0.2-1,0.2-1.4
			C1022,40.3,1020.3,39.4,1016.2,39.4z"/>
		<path class="st2" d="M1069.6,62.9c0-13-5.5-24.1-20.2-24.1c-13.4,0-22.7,7.1-22.7,25.5c0,15.1,7.5,24.9,24.4,24.9
			c5.2,0,16.8-2.1,16.8-6.7c0-1.9-2.8-7.1-4.9-7.1c-1.3,0-5.4,2.9-11.3,2.9c-6.1,0-10.1-2.3-10.8-9.8h23.8
			C1066,68.5,1069.6,64.5,1069.6,62.9z M1041,59.2c1.1-7.2,4.5-9.4,8.4-9.4c4.7,0,6.7,4,6.7,9.4H1041z"/>
		<path class="st2" d="M1101.2,38.8c-4.4,0-7.6,1.5-9.5,2.9V20.9c0-2-1.7-3-5.6-3h-2.6c-3.9,0-5.6,1-5.6,3v64.7c0,2,1.7,3,5.6,3h1.1
			c3,0,5-0.4,5.4-2.4l0.9-4c2.1,4,6.7,7,12.5,7c10.1,0,17.5-9,17.5-25.2C1121,48.7,1113.8,38.8,1101.2,38.8z M1099.4,77.9
			c-3.6,0-6-2.6-7.7-5.5V51.6c1.5-0.8,3.6-1.8,6.5-1.8c5.9,0,8.7,4.9,8.7,14.2C1106.9,73,1104.5,77.9,1099.4,77.9z"/>
	</g>
	<g>
		
			<linearGradient id="SVGID_2_" gradientUnits="userSpaceOnUse" x1="942.431" y1="574.6668" x2="1146.2714" y2="574.6668" gradientTransform="matrix(1 0 0 1 0 -488.89)">
			<stop  offset="0" style="stop-color:#EB5C6D"/>
			<stop  offset="0.2429" style="stop-color:#C8738B"/>
			<stop  offset="0.4999" style="stop-color:#9D81A6"/>
			<stop  offset="0.7211" style="stop-color:#7386B9"/>
			<stop  offset="0.8949" style="stop-color:#4F88C4"/>
			<stop  offset="1" style="stop-color:#3D88C7"/>
		</linearGradient>
		<path class="st3" d="M1146.1,64.2c-1.2-9.4-12.8-16.6-20-17.6c2.6,2,5.4,3.7,7.8,6c4,3.8,5.8,8.5,4.4,14
			c-1.3,5.3-4.7,9.5-8.6,13.2c-9.1,8.6-20,14.2-31.4,18.9c-20.6,8.4-42.1,13.1-64.3,15.1c-14.6,1.3-29.1,1.1-43.4-1.5
			c-8.2-1.5-16.1-3.7-23-8.6c-7-4.9-9.2-11-6.9-18.1l-3-10.9c0,0,0,0-0.1-0.1c-3.1,2.3-9.1,7.3-12.7,14.2
			c-4.5,8.5-2.8,16.6,4.7,22.7c6.8,5.6,14.9,8.3,23.3,10.1c17.9,4,36,3.9,54.1,2.3c19.6-1.7,38.8-5.5,57.4-11.6
			c15.5-5,30.4-11.2,43.8-20.7c5.6-4,10.8-8.5,14.4-14.4C1145.3,73.3,1146.8,69,1146.1,64.2z"/>
	</g>
</g>
</svg>
