<?xml version="1.0" encoding="utf-8"?>
<!-- Generator: Adobe Illustrator 20.1.0, SVG Export Plug-In . SVG Version: 6.00 Build 0)  -->
<svg version="1.1" id="layer" xmlns="http://www.w3.org/2000/svg" xmlns:xlink="http://www.w3.org/1999/xlink" x="0px" y="0px"
	 viewBox="0 0 640 180" style="enable-background:new 0 0 640 180;" xml:space="preserve">
<style type="text/css">
	.st0{fill:#3E7CC0;}
</style>
<g>
	<path class="st0" d="M215.6,92.9c0-29,21.1-51.3,50.9-51.3s50.9,22.4,50.9,51.3c0,29-21.1,51.3-50.9,51.3
		C236.7,144.2,215.6,121.9,215.6,92.9 M303.3,92.9c0-21.4-14.5-38.9-36.8-38.9s-36.8,17.5-36.8,38.9s14.5,38.9,36.8,38.9
		S303.3,114.3,303.3,92.9"/>
	<path class="st0" d="M404.4,65.2C398.9,58,389.8,54,380.8,54c-21.9,0-36.4,17.5-36.4,39.7c0,20.5,13.7,38.1,36.4,38.1
		c11.2,0,19.7-5,25.5-13.1l11.2,8.4c-2.9,4-14.6,17.1-37,17.1c-31,0-50.2-25.9-50.2-50.5c0-30.4,20.8-52.2,50.9-52.2
		c12.8,0,26.4,4.8,34.2,15.2L404.4,65.2z"/>
	<polygon class="st0" points="433.5,44.1 446.7,44.1 446.7,84.8 497.3,84.8 497.3,44.1 510.6,44.1 510.6,141.8 497.3,141.8 
		497.3,97.1 446.7,97.1 446.7,141.8 433.5,141.8 	"/>
	<path class="st0" d="M566.3,44.1h12l41.8,97.7h-15.5l-9.8-24.1h-46.4l-9.7,24.1h-15.5L566.3,44.1z M590,106l-18.2-44.8h-0.3
		L553,106H590z"/>
	<path class="st0" d="M90.7,77.6c0-7.5,6.1-13.5,13.5-13.5c7.5,0,13.5,6.1,13.5,13.5c0,7.5-6,13.5-13.5,13.5v-0.9v-0.8
		c6.5,0,11.8-5.3,11.8-11.8s-5.3-11.8-11.8-11.8s-11.8,5.3-11.8,11.8s5.3,11.8,11.8,11.8v0.8v0.9C96.8,91.2,90.7,85.1,90.7,77.6"/>
	<path class="st0" d="M79.9,77.6c0-13.4,10.9-24.3,24.3-24.3s24.3,10.9,24.3,24.3s-10.9,24.2-24.3,24.3v-0.8v-0.9
		c12.4,0,22.6-10.1,22.6-22.6S116.7,55,104.2,55S81.7,65.1,81.6,77.6c0,12.4,10.1,22.5,22.6,22.6v0.9v0.8
		C90.8,101.9,79.9,91,79.9,77.6"/>
	<path class="st0" d="M68.2,77.6c0-19.9,16.1-36,36-36s36,16.1,36,36s-16.1,36-36,36v-0.9V112c18.9,0,34.2-15.3,34.2-34.3
		c0-18.9-15.3-34.2-34.2-34.3c-18.9,0-34.3,15.4-34.3,34.3s15.3,34.2,34.3,34.3v0.8v0.9C84.3,113.6,68.2,97.5,68.2,77.6"/>
	<path class="st0" d="M57,77.6c0-26.1,21.1-47.2,47.2-47.2s47.2,21.1,47.2,47.2s-21.1,47.2-47.2,47.2V124v-0.8
		c25.1-0.1,45.5-20.4,45.5-45.5s-20.4-45.5-45.5-45.5S58.8,52.6,58.7,77.7c0,25.1,20.3,45.4,45.5,45.5v0.8v0.9
		C78.1,124.8,57,103.8,57,77.6"/>
	<path class="st0" d="M44.6,77.6c0-32.9,26.7-59.6,59.6-59.6s59.6,26.7,59.6,59.6s-26.7,59.6-59.6,59.6v-0.9v-0.8
		c32-0.1,57.8-25.9,57.9-57.8c-0.1-32-25.9-57.8-57.9-57.9c-32,0.1-57.8,25.9-57.9,57.9c0,32,25.9,57.8,57.9,57.8v0.9v0.9
		C71.3,137.2,44.6,110.5,44.6,77.6"/>
	<rect x="103.3" y="18.9" class="st0" width="1.7" height="46.1"/>
	<polygon class="st0" points="62.1,36.8 63.3,35.5 95.8,68.1 94.6,69.3 	"/>
	<rect x="45.5" y="76.8" class="st0" width="46" height="1.7"/>
	<polygon class="st0" points="62.1,118.5 94.6,86 95.8,87.2 63.3,119.8 	"/>
	<rect x="103.3" y="90.3" class="st0" width="1.7" height="46.1"/>
	<polygon class="st0" points="112.5,87.2 113.8,86 146.3,118.5 145.1,119.8 	"/>
	<rect x="116.9" y="76.8" class="st0" width="46.1" height="1.7"/>
	<polygon class="st0" points="112.5,68.1 145.1,35.5 146.3,36.8 113.8,69.3 	"/>
	<path class="st0" d="M95.1,81.5c0.5-0.1,0.4,0.4,0.6,0.7c0,0,0.1,0,0.2,0c0.8-0.8,1.3-1.8,1.5-3c0-0.1,0.2-0.2,0.2-0.2
		c-0.1-0.5-0.7-0.7-0.9-1.1c-0.3,0.8-1.1,0.1-1.7,0.5c0,0-0.1,0.2,0.1,0.3c0.2,0.1,0.5,0,0.6,0.2s0.1,0.6-0.1,0.8
		c0,0.1-0.2,0.1-0.2,0c-0.3-0.6-0.8-0.5-1.4-0.5c0.2,0.2-0.2,0.1-0.1,0.3c-0.8-0.2-1.5,0.1-2.2,0.2c-0.2,0-0.5-0.1-0.7-0.4
		c-0.3,0.3-0.6,0.8-1,0.7c-0.1-0.1-0.4-0.4-0.2-0.5c0.4-0.3,0.8-0.6,1-1c0.2-0.3,0-0.7,0.2-1c0.2-0.5,0.6-0.8,1-0.8
		c0.5,0,1.3,0.4,1.7-0.1c0.1-0.1,0.4,0.3,0.6,0.5c0.1,0.1,0,0.2-0.1,0.2c-0.3,0.3-0.7,0.3-0.9,0.7c-0.1,0.3,0,0.5,0.3,0.6
		c0.4,0.2,0.5-0.3,0.6-0.6c0.2-0.2,0.4,0,0.6,0c0-0.1,0-0.2,0-0.2c0.4-0.1,0.9-0.1,1.3-0.1c0.5,0,0.2-1,0.2-1.7c0-0.1,0-0.3,0-0.5
		c0-0.1,0-0.2,0.1-0.2c0.1-0.3,0.8-0.4,0.9-0.1c0,0.1,0,0.2,0.1,0.4c0,0.2,0.1,0.3,0.3,0.2c0.1,0,0.1-0.1,0.1-0.2
		c0.1-0.2,0-0.5,0.2-0.6c0.2-0.2,0.5,0.3,0.8,0.3c0.3,0.1,0.7,0.1,0.9-0.1c0.2-0.1,0.2-0.4,0-0.7c-0.1-0.1-0.3-0.2-0.3-0.1
		c-0.3,0.3-0.7,0.2-1,0.2s-0.4-0.4-0.7-0.5c-0.3-0.2-0.6,0.2-0.9,0.1c-0.3-0.2-0.5-0.4-0.3-0.7c0.1-0.1,0.3-0.3,0.5-0.4
		c0.4-0.2,0.8-0.2,1-0.5s0.3-0.6,0.3-1c0-0.2,0.2-0.2,0.3-0.2c0.5-0.2,0.9-0.1,1.3-0.2c0.5-0.2,0.8-0.6,1.2-0.9
		c0.2-0.1,0.4-0.3,0.7-0.3c0.1,0,0.2-0.3,0.2-0.3c0.1-0.7-0.1-1.4,0-2.2c0.1-0.2,0.4-0.3,0.2-0.6c0-0.1-0.4,0.1-0.4,0
		c-0.2-0.2-0.3-0.4-0.1-0.6c0.2-0.2,0.6,0,0.7-0.3c0.3-0.4,0.1-1-0.3-1.2s-0.8,0.2-1.3,0.1c0.1,0.2-0.2,0.2-0.3,0.2
		c-0.6,0.2-0.6-0.5-0.5-0.9c0-0.1,0.1-0.1,0.1-0.1c0.1,0,0.2-0.2,0.2-0.4h-0.4c-0.5,0.3-0.7,0.8-1.2,1.1c-0.1,0-0.1,0.2,0,0.2
		c0,0.1,0.1,0.2,0.2,0.1c0,0.3,0.1,0.8-0.4,0.7c-0.1,0-0.1-0.2-0.1-0.2c-0.1-0.1-0.5-0.2-0.5,0c-0.1,0.4,0.7,0.5,0.5,0.9
		c-0.3,0.5-1,0.6-1.6,0.8c-1.2,0.5-2.4,0-3.7,0.2c-0.7,0.1-1.4,0-2.1-0.2c-0.5-0.1-0.6,0.3-0.8,0.7c0-0.1,0-0.2-0.1-0.1
		c0-0.3,0.1-0.5,0.1-0.7s-0.4-0.2-0.4-0.4c-0.8-1.6-2.9-1.3-4.4-1.1c-0.3,0-0.4,0.3-0.6,0.5c-0.3,0.3-0.7,0-1.1,0.2
		c-0.1,0.1-0.2,0.3-0.3,0.4c-0.5,0.1-1-0.4-1.3-0.1c-0.3,0.2-0.6,0.2-0.9,0.4c-0.1,0.1-0.1,0.3-0.1,0.5c0,0.1-0.2,0.1-0.3,0.1
		c-0.4,0.1-1.1-0.1-1.1,0.5h0.1c0.2,0.5-0.1,1.1-0.5,1.2c-0.5,0.2-1.1,0.1-1.6,0.4c-0.2,0.1-0.6,0.3-0.7,0.6c-0.8,1.5-1.6,3-1.7,4.7
		v0.2c0,0.1,0.2,0.2,0.2,0.2c-0.8,1.8-1.3,2.7-2.3,4.3c-0.4,0.7-0.9,2.3-0.2,2.9c0.3,0.3-0.2,1-0.7,1c-0.6,0-1.5-0.1-1.7-0.8
		c-0.1-0.3-0.6-0.4-1-0.4l0,0l-0.3-0.1c-0.5,0-1-0.1-1.4,0.1c-0.7,0.2-0.8,1-1.1,1.6c-0.2,0.5-1.1,0.4-1.3,0.9
		c-0.1,0.2,0.1,0.6-0.1,0.9c-0.1,0.2-0.4,0.2-0.5,0.4c0,0.1-0.1,0.3-0.2,0.4c-0.2,0.7-0.3,1.3-0.1,1.9c0,0.2,0,0.4,0.1,0.5
		c0.2,0.7,0,1.3-0.4,1.9c-0.5,0.6-1.3,0.6-2,0.9c-0.3,0.1-0.7-0.2-1.1-0.1c-0.8,0.1-1.7-0.2-2.5,0c0,0-0.2,0.1-0.3,0.2
		c-0.4,0.1-0.5-0.3-0.8-0.5c-0.2-0.3-0.3-0.7-0.5-0.8c-0.5-0.2-1.1,0.1-1.5,0.5c0.2,0,0,0.2,0.2,0.2c-0.5,0-0.9,0.5-1.4,0.7
		c-0.5,0.3-0.7-0.6-0.7-1.2c0-0.3-0.5-0.5-0.9-0.3c-0.1,0.1-0.2,0.1-0.2,0.3c-0.1,0-0.2-0.2-0.3,0c-0.4,0.4,0.3,0.4,0.5,0.6
		c0.1,0.1,0,0.3-0.2,0.4s-0.5-0.1-0.5,0c-0.1,0.3-0.3,0.4-0.5,0.3c0,0.1,0,0.1,0,0.2s0.1,0.1,0.1,0.1c-0.2,0.1-0.4,0.2-0.5,0.1
		C51,92.5,51.1,92.2,51,92c-0.1,0-0.2,0-0.2,0.1c-0.1,0.4,0,0.5-0.4,0.6c0.1,0.1-0.1,0.4,0.1,0.5c0.2,0.1,0.5-0.1,0.7,0
		c0.3,0.3,0.3,0.8,0.4,1.3l-0.1,0.1c0.1,0.2,0.1,0.9-0.2,0.6c-0.4-0.3,0.1-0.9-0.2-1.3c-0.1-0.1-0.3,0-0.5,0
		c0.3,0.6-0.3,1.3,0.3,1.9c0.2,0.3-0.7,0.6-0.3,1c0.2,0.1,0.5,0.3,0.8,0.4c0.1,0,0-0.4,0-0.4c0-0.2,0.5-0.3,0.6-0.1
		c0.1,0.1,0.1,0.3,0.1,0.5c-0.2-0.1-0.4,0-0.6,0.1c0.2,0.4-0.1,0.7-0.1,1.1c0,0.1,0.1,0.2,0.1,0.3c0.1,0.3,0.6,0,0.8,0.3
		c0.1,0.2-0.2,0.4-0.1,0.7c0.1,0.2,0.4,0.1,0.5,0.2c0.2,0.1,0.1,0.4,0.1,0.6c0.2,0,0.5,0.2,0.4,0.4c0.2,0.1,0.3-0.2,0.2-0.4
		c0.5,0,0.3-0.5,0.4-0.8c-0.2,0.1-0.2-0.2-0.4-0.1c-0.1-0.3,0-0.6-0.1-0.8c-0.1-0.3-0.5-0.3-0.6-0.7c0.4,0.1,0.6,0,0.8-0.4
		c0.1-0.2,0.4,0.1,0.5,0.3c0.1,0.1,0,0.1,0,0.2c0.3-0.1,0.3,0.2,0.4,0.3c0.3,0.2,0.3,0.5,0.6,0.6c0.5,0.1,0.9,0.1,1.3,0
		c0-0.2,0-0.4,0.1-0.5c0.2-0.2,0.3,0.2,0.6,0.2c-0.1,0.4,0.1,0.8,0.5,1c0.1,0,0.2,0,0.3,0c0.1,0.1,0.2,0.4,0.4,0.4
		c0.1,0,0.3-0.1,0.4,0c0.2,0,0.2,0.2,0.3,0.5l0.1,0.1c0.4-0.1,0.9,0,1,0.4c0.2,0.5,0.6,0.9,0.8,1.4c0.1,0.3,0.5,0.4,0.6,0.6
		c0,0.2,0.1,0.3,0.2,0.3c0.3,0.3,0.7,0.4,1.1,0.5c0.1,0,0.4-0.2,0.6-0.4c0.1,0,0.3,0.1,0.3,0.1c0.4,0.6,0.5,1.5,1.1,1.8
		c0.3,0.2,0.4,0.6,0.7,0.7c0.2,0.1,0.4-0.2,0.6,0c0.1,0.1,0.2,0.4,0.3,0.4c0.4,0.2,0.8,0.5,0.9,1c0,0.1,0.1,0.2,0.2,0.2
		c0.4,0,0.7-0.2,1,0c0.3,0.3,0.7,0.4,0.9,0.7c0.1,0.1,0.3,0.2,0.4,0.1s0.1-0.4,0.1-0.5c0.1-0.2,0.4-0.2,0.6-0.2
		c0.3-0.1,0.3-0.6,0.6-0.6c0.5-0.1,0.7,0.5,1.1,0.8l0.2,0.1c0.4,0.2,0.2,1,0.8,1.1c0.6,0,0.9,0.6,1.5,0.6c0.4,0.1,0.8,0.2,1.1,0.5
		c0.1,0.1,0.3,0.1,0.5,0s0.4-0.2,0.6-0.3c0.5-0.3,1.2-0.4,1.8-0.7c0.1-0.1,0.2-0.3,0.4-0.3c0.9-0.4,1.9,0.3,2.8-0.1
		c0.2-0.1,0.5-0.1,0.8-0.3c0.6-0.4,0.7-1.1,0.5-1.8c-0.4-1-0.7-2-1.4-2.8c-0.3-0.5-0.8-0.7-1.2-1.1c-0.1-0.1-0.4-0.1-0.6-0.2
		c-0.4-0.2-0.3-0.6-0.2-0.9c0-0.1-0.4-0.1-0.5-0.3c-0.1-0.2,0-0.5,0-0.7c0-0.1-0.1-0.2-0.2-0.2c-0.5-0.1-1-0.3-1.5-0.3
		c-0.2,0-0.3-0.1-0.5-0.2c-0.1-0.1,0-0.2,0.1-0.3c0.3-0.3,0.7-0.4,1.1-0.6c-0.1-0.2-0.2-0.5,0-0.5c0.2-0.2,0.1-0.6,0.1-0.8
		c0-0.1-0.1-0.2-0.3-0.2c0-0.5,0.3-0.9,0-1.3s-0.7-0.6-0.8-1.2c0-0.1-0.3-0.2-0.3-0.3c0-0.6,0.2-1.3,0.1-1.9
		c-0.1-0.3-0.4-0.6-0.2-0.7c0.1-0.1,0.3-0.2,0.5-0.3c0.4-0.1,0.6-0.5,0.3-0.7c-0.2-0.3-0.6,0-0.9-0.1c-0.1,0-0.2-0.1-0.2-0.3
		c-0.1-0.2,0.2-0.7-0.1-0.8c-0.2-0.1-0.4-0.2-0.5-0.4c-0.2-0.3,0-0.6,0.2-0.9c-0.1,0-0.1-0.2-0.2-0.1c-0.1-0.3,0.2-0.7,0.1-1
		s-0.3-0.6-0.7-0.5v0.1c-0.2,0.2-0.4,0.2-0.6,0.1c0-0.1,0-0.2,0-0.4c0.1-0.2,0.4-0.1,0.6-0.2c0.3-0.3,0-0.7-0.1-0.8
		c-0.4-0.4-0.6-0.7-0.5-1.3c-0.5,0-1.3-0.1-1.2-0.8c0-0.6-0.1-1.2-0.3-1.8c-0.1-0.4-0.1-0.9,0.2-1.2c0.1-0.1,0.2-0.3,0.3-0.3
		c0.6-0.1,1.4,0,1.8-0.6c0.2-0.4-0.3-1.1,0.1-1.4c0.6-0.5,1.6-0.2,2.4-0.6c0.2-0.2,0.2-0.5,0.1-0.8s-0.3-0.6-0.5-0.9
		c-0.3-0.4-0.9-0.2-1.1-0.6c-0.1-0.2-0.1-0.5,0-0.7c0.1-0.3,0.4-0.6,0.7-0.8c0.7-0.3,1.4-0.1,2,0.3c0.2,0.1,0.4,0.3,0.5,0.5
		c0.1,0.1,0.1,0.2,0.1,0.3c0.2,0.8,0.5,1.7,0.2,2.4c-0.1,0.3-0.4,0.4-0.4,0.8c0.2-0.2,0.3,0.1,0.3,0.2c0.1,0.5,0.5,1.3,0,1.6
		c-0.6,0.4-0.5-0.1-1.2,0c-0.3,0-0.5,0-0.5,0.2s0.3,0.5,0.4,0.6c1.4,0.4,2.2,0.5,3.7,0.7c0.3,0.1,0.6,0.5,0.9,0.5s0.6,0.2,0.9-0.2
		c0.1-0.1,0.4,0,0.4,0.1c0.1,0.3,0.2,0.3,0.4,0.4c0.5,0.2,0.3,1.4,0.9,1c0.3-0.2,0.6,0,1-0.1c-0.4,0.5-0.2,1,0.2,1.4
		c0.3,0.4,0.7,0.5,1.1,0.9c0.3,0.3,0.7,0.2,0.7-0.2c0.1-0.5-0.4-1,0.2-1.4c0.6,0.8-0.2,1.8,0.4,2.6c0,0.1,0.1,0.1,0.1,0.2
		c0.3,0.3,0.5,0.7,0.9,0.7c0.2-0.1,0.4-0.4,0.5-0.7c0-0.1,0-0.2,0.1-0.2c0-0.3,0.2-0.4,0.2-0.7c0.1-0.4,0.6-0.6,0.5-1.1
		c0-0.1,0-0.3,0-0.4c0-0.5,0.7-0.9,1.2-0.8c0.2,0,0-0.1,0.2-0.2c0.2-0.2,0.2-0.7,0.4-1c0.2-0.2,0.4-0.5,0.5-0.7
		c0.1-0.1,0.3-0.3,0.2-0.5C94.9,81.8,94.9,81.5,95.1,81.5"/>
	<path class="st0" d="M78.1,80.5c-0.2-0.2-0.4,0-0.6,0.1s-0.2,0.4-0.1,0.5c0.1,0.2,0.2,0.4,0.2,0.6c0,0.4-0.1,0.8,0,1.2
		c0.1,0.3,0.5,0.9,0.7,0.5s0.6-1,0.3-1.6C78.5,81.4,78.6,80.8,78.1,80.5"/>
	<path class="st0" d="M77.3,84c0.1,0.2,0.1,0.2,0.2,0.4c0.1,0.3,0.7,0.2,0.8,0c0-0.1,0-0.4-0.2-0.5c-0.1-0.2-0.4-0.1-0.5-0.2
		c-0.1,0-0.2-0.2-0.3-0.1C77.3,83.8,77.3,83.9,77.3,84"/>
	<path class="st0" d="M78.3,85.6c0-0.7-0.6-0.8-0.9-0.4c-0.5,0.4,0.1,1.2,0.5,1.8c0,0.1,0.1,0.3,0.2,0.5c0.2,0.2,0.6,0.1,0.7-0.1
		s0.2-0.3,0.3-0.5C79.2,86.4,78.9,85.6,78.3,85.6"/>
	<path class="st0" d="M77.1,82.4c0-0.1-0.2-0.1-0.2-0.1c-0.2,0.1-0.3,0.3-0.3,0.5c-0.1,0.3,0,0.6,0.3,0.9c0.1,0.1,0.3,0,0.3-0.2
		C77.3,83.1,77.1,82.8,77.1,82.4"/>
	<path class="st0" d="M78.8,84.9c0.1-0.1,0.3-0.2,0.2-0.4c0.2,0,0.3,0,0.4-0.2c0.1-0.1-0.1-0.2-0.1-0.3c-0.3-0.1-0.6,0.3-0.8,0.5
		C78.3,84.6,78.6,84.9,78.8,84.9"/>
	<path class="st0" d="M78.3,88.5c0,0.3,0,0.5,0.2,0.6c0.1,0,0.3,0.1,0.3-0.1s0.2-0.4,0-0.5h-0.1C78.6,88.3,78.5,88.6,78.3,88.5"/>
	<path class="st0" d="M79.4,91.5c0.1-0.2,0.3-0.5-0.1-0.7c-0.1,0-0.3,0-0.4,0C79,91.1,79.2,91.4,79.4,91.5"/>
	<path class="st0" d="M53.6,101.6c-0.1,0-0.1,0.4,0,0.5s0.4,0.1,0.6,0.1C54.1,101.9,54.1,101.3,53.6,101.6"/>
	<path class="st0" d="M56.3,104.3c-0.2,0.4,0.3,0.9,0.9,0.9c0-0.2,0.1-0.5,0-0.6C56.9,104.3,56.4,104,56.3,104.3"/>
	<path class="st0" d="M57.5,105.9c-0.1,0.8,0.2,1.3,1,1.4C58.5,106.4,58.2,106,57.5,105.9"/>
	<path class="st0" d="M98.4,85.1c0.7-0.2,1.5-0.4,2.3-0.4c1.8-0.1,1.7-2.3,2.6-3.8c0.2-0.3-0.1-1.1-0.4-1.5c-0.6-1-2.5,0.1-2.9-0.9
		c-0.3-0.6,1.3,0.3,1.4-0.5c0-0.2-0.1-0.6-0.3-0.6c-0.2-0.2-0.7-0.2-0.9,0c-1,0.8-1.1,2.2-1.6,3.1c-1,1.8-2.8,3-3.8,5
		c-0.1,0.3,0.1,0.5,0.3,0.6C96.4,86.6,97.3,85.3,98.4,85.1"/>
	<path class="st0" d="M105.7,80.8c-0.3,0.1-0.5,0.2-0.7,0.3c-0.1,0.3-0.2,0.7,0,0.9c0.1,0.1,0.5,0.1,0.6,0c0.2-0.2-0.1-0.5-0.3-0.6
		C105.5,81.2,105.7,81,105.7,80.8"/>
	<path class="st0" d="M100.3,86.8c0.6,0.7,2,0.5,1.9-0.2c-0.2-0.6-1.1-0.9-1.8-0.7C99.9,86.1,101.1,86.6,100.3,86.8"/>
	<path class="st0" d="M102.2,92.1c0.6-0.3,0.3-0.8,0.4-1.3c-0.6,0.2-0.9,0.7-1,1.3C101.7,92.1,101.9,92.2,102.2,92.1"/>
	<path class="st0" d="M109.5,81.4c0.1,0,0.1-0.5,0-0.6s-0.4,0-0.6,0c-0.3-0.1-0.3-0.3-0.4-0.6c0-0.4-0.3-0.6-0.3-1
		c-0.4,0.2-0.4,0.7-0.3,0.9C108.4,80.6,108.7,81.6,109.5,81.4"/>
	<path class="st0" d="M99.8,76.3c-0.3-0.2-0.5,0-0.3,0.3c0.1,0.1,0.4,0,0.6,0C100,76.6,100,76.4,99.8,76.3"/>
	<path class="st0" d="M52,91.9c0.1-0.1-0.1-0.3-0.2-0.4c-0.2-0.2-0.4,0-0.5-0.2c0,0.2,0,0.3,0.1,0.5C51.4,92,51.8,92.1,52,91.9"/>
	<path class="st0" d="M54.8,91.9c0.3-0.1,0.7-0.3,0.5-0.7h-0.1c-0.5-0.3-1-0.2-0.9,0.4C54.2,91.8,54.5,92.1,54.8,91.9"/>
	<path class="st0" d="M101,63.4c0.1-0.3,0.6-0.3,0.5-0.7c0-0.1-0.3-0.1-0.5-0.1s-0.1,0.3-0.1,0.5c-0.1,0-0.2,0-0.2,0.1
		C100.7,63.4,100.9,63.5,101,63.4"/>
	<path class="st0" d="M102.4,62.9c0.1-0.1,0.3-0.3,0.1-0.4c-0.2-0.2-0.5-0.2-0.5-0.1C101.8,62.6,102.1,63.1,102.4,62.9"/>
	<path class="st0" d="M98,73.6c-0.2,0.5,0.7,1,1.1,0.8c0.3-0.2,0.2-0.8-0.2-1C98.7,73.3,98.1,73.4,98,73.6"/>
	<path class="st0" d="M99,76.8c0.2-0.2,0-0.4-0.2-0.5s-0.5-0.1-0.7,0c-0.1,0-0.1,0-0.2-0.1c-0.1,0.2,0.1,0.3,0.2,0.3
		C98.5,76.5,98.7,76.9,99,76.8"/>
	<path class="st0" d="M97.7,77.6c-0.2,0.1-0.2,0.6,0,0.8c0.3,0.1,0.6,0.1,0.7-0.3c0.1-0.3,0.3-0.6,0-0.8
		C98.2,77.1,98,77.4,97.7,77.6"/>
	<path class="st0" d="M96.9,76.5c0,0.4-0.2,0.8-0.1,1.2c0.1,0.2,0.4,0.2,0.4,0c0.1-0.4,0-0.7,0.3-0.9c-0.1,0-0.2-0.2-0.2,0.1
		c0-0.1,0.1-0.2,0-0.2C97.2,76.4,97.1,76.5,96.9,76.5"/>
	<polygon class="st0" points="102.3,99.1 102.4,99.1 102.4,99.1 	"/>
	<path class="st0" d="M128,105.1V105c0,0.1-0.1,0.1-0.2,0.1C127.9,105.1,128,105.1,128,105.1"/>
	<path class="st0" d="M104.5,89.6c-0.2,0.1-0.1-0.1-0.2-0.2S104,89.3,104,89c-0.1-0.3-0.4,0.2-0.7,0.2c0,0-0.1,0.1-0.1,0.2
		c0.3,0.4-0.1,0.5-0.3,0.7c-0.1,0.3,0.3,0.3,0.4,0.6c0.1,0.3-0.2,0.6-0.2,1c-0.1,0.1-0.2,0.2-0.4,0.5c0,0-0.2,0.3-0.1,0.5
		c0.3,0.3,0.7-0.3,1-0.4c0.3,0,0.3,0,0.5-0.2c0.3-0.2,0.6-0.3,0.7-0.6c0-0.1-0.5-0.2-0.6-0.2c0.2-0.6-0.1-0.7,0-1.4
		C104.2,89.9,104.5,89.6,104.5,89.6"/>
	<path class="st0" d="M106.9,97.3h0.2c0.2-0.2,0.3-0.5,0.1-0.7c-0.1-0.2-0.5-0.2-0.5,0.1C106.7,96.9,106.8,97.1,106.9,97.3"/>
	<path class="st0" d="M107.3,96.1c0.2,0,0.1-0.3,0-0.5c-0.1-0.1-0.3-0.1-0.3-0.1C106.8,95.9,106.9,96.2,107.3,96.1"/>
	<path class="st0" d="M109.7,97.3c-0.1,0-0.1-0.1-0.1-0.1c-0.2,0-0.4-0.1-0.7-0.1c-0.1,0-0.2,0-0.4,0c0,0.2-0.1,0.5,0.1,0.6
		C109,97.8,109.4,97.8,109.7,97.3"/>
	<path class="st0" d="M113.8,97c0.1,0,0-0.4-0.1-0.4c-0.4-0.1-0.7,0.3-1.1,0.2c0,0.1,0,0.2-0.1,0.3h-0.2
		C112.8,97.6,113.4,97.1,113.8,97"/>
	<path class="st0" d="M115.4,95.5c0.2,0.6,0.9,0.3,0.9-0.1c0-0.3-0.4-0.3-0.6-0.1c0-0.1,0.1-0.1,0.1-0.2
		C115.7,95.3,115.4,95.3,115.4,95.5"/>
	<path class="st0" d="M134.8,82.6c-0.2,0.3,0.5,0.4,0.8,0.5c0.4,0.1,1,0.1,1.1-0.3c0.2-0.6-0.5-1.2-1.2-1.2
		C134.9,81.8,134.9,82.2,134.8,82.6"/>
	<path class="st0" d="M134.9,103.3c-0.2-0.1-0.6-0.1-0.6,0c-0.5,2-2.3,4.8-0.1,6.1c1,0.6,2.2-0.6,2.3-1.2
		C136.9,106.6,136.7,104.2,134.9,103.3"/>
	<path class="st0" d="M128.7,94.4c-0.3,0.2-0.4,0.9,0.1,0.9c0.2,0,0.4-0.1,0.6-0.3c0.2-0.2,0.1-0.5-0.1-0.5
		C129.2,94.4,128.9,94.3,128.7,94.4"/>
	<path class="st0" d="M130.2,115c-0.2,0.3-0.1,0.8,0.2,1c0-0.3,0.5-0.7,0.1-1C130.4,114.8,130.3,114.9,130.2,115"/>
	<path class="st0" d="M139.5,67.6c-0.3,0-0.4,0.1-0.5,0.2c-0.1,0.3,0,0.6-0.1,0.9c-0.7,1.8-2.7,3.4-1.8,5.5c0,0,0.1,0,0.2,0
		c0.6-0.4,0.9-0.9,1.2-1.5c0.6-1.2,1.1-2.5,1.5-3.9C140.2,68.2,140.1,67.6,139.5,67.6"/>
	<path class="st0" d="M136.1,74.8c-0.2,0.3,0.2,0.5,0.4,0.4s0.4-0.5,0.2-0.6C136.5,74.5,136.2,74.5,136.1,74.8"/>
	<path class="st0" d="M115.5,62.3c-0.2-0.7-0.8,0-1.3-0.1c-0.2,0-0.3-0.3-0.4-0.3c-0.2,0-0.4,0.1-0.5,0.2c-0.3,0.2-0.1,0.7,0.2,0.6
		c0.2,0,0.4-0.4,0.5-0.1c0.2,0.4,0.1,1.1,0.7,0.9c0.4-0.1,0.6-0.4,1.1-0.4c0.4,0,0.5-0.5,0.4-0.8c0.4,0,1-0.4,1.3,0
		c0.1,0.1,0.2,0.4,0.3,0.6c0.1,0.3,0.4,0.4,0.8,0.4c0.4-0.1,0.8-0.1,1.1-0.4c0.3-0.4,0.3-0.8-0.1-1.1c-0.2-0.1-0.4,0-0.6-0.1
		c-0.3-0.2-0.6-0.5-0.9-0.6C116.9,60.8,116.2,61.8,115.5,62.3"/>
	<path class="st0" d="M119,63.2c-0.1,0-0.2,0-0.4,0l0,0H119z"/>
	<path class="st0" d="M111.4,62.9c0.4-0.1,0.8-0.1,1.2,0v-0.1c0-0.7-0.7-0.6-1.1-0.3v0.1c-0.1,0.1-0.3,0-0.4,0
		C111,62.8,111.2,63,111.4,62.9"/>
	<path class="st0" d="M112.9,65.6c0.4-0.6,1.1-0.9,1.7-1.2c0,0,0-0.1,0-0.2c0,0,0,0.1-0.1,0.2c-0.1-0.3-0.4-0.5-0.6-0.7
		c0,0.3-0.3,0.5-0.5,0.6c-0.3,0.2-0.8,0.5-0.9,0.9c-0.1,0.3-0.2,0.7,0.1,1C112.7,66.1,112.8,65.8,112.9,65.6"/>
	<path class="st0" d="M106.7,61.6c0,0.2-0.1,0.4,0.2,0.5c0.3,0.1,0.3-0.4,0.2-0.5C106.9,61.5,106.7,61.4,106.7,61.6"/>
	<path class="st0" d="M92.2,52.4c0.5,0.2,1.1,0.2,1.5,0.3c0.1,0,0.4-0.3,0.2-0.5c-0.3-0.2-0.7,0-1-0.4l-0.2-0.1
		c-0.4-0.1-0.5,0.3-0.8,0.5C91.9,52.3,92.2,52.4,92.2,52.4"/>
	<path class="st0" d="M129.1,59.1c-0.2,0.2-0.5,0.1-0.8,0.2c-0.2,0.1-0.1,0.4-0.1,0.5c0.3,0.5,0.7,0.2,1.1,0.1
		c-0.1,0.2,0.1,0.1,0.2,0.2c0.2,0.1,0.3-0.4,0.5-0.2v0.3c-0.3,0.2-0.3,0.5-0.5,0.6s-0.5,0.1-0.6-0.2h-0.2h0.1
		c-0.1,0.2,0,0.6-0.1,0.7c-0.5,0.4-1.6,0.8-1.1,1.4c0.4,0.5,1.2,0.4,1.9,0.3c0.1,0,0.2-0.1,0.1-0.2c-0.1-0.7,0.3-0.7,0.7-1.1
		c0.2-0.1-0.1-0.3-0.3-0.5c-0.2-0.1,0-0.5,0.2-0.5c0.3,0,0.3-0.3,0.5-0.2v-0.4c0.4,0.1,0.7-0.2,0.6-0.6c-0.1-0.5-0.5-0.8-0.4-1.3
		c0-0.2,0.2-0.3,0.4-0.4c0.1,0,0.2-0.2,0.1-0.3c-0.1-0.1-0.2,0-0.2,0c0,0.2-0.2,0.1-0.2,0.2c-0.4,0.1-0.8,0-1.2,0.2
		C129.2,58.2,129.4,58.8,129.1,59.1"/>
	<path class="st0" d="M124.8,63.2c0,0.5,0.6,0.3,0.8,0.1c-0.2,0.1-0.1-0.2-0.2-0.2C125.3,63.1,125.1,63.2,124.8,63.2"/>
	<path class="st0" d="M130.9,62.3c-0.3,0.4,0.5,0.4,0.8,0.2c0,0,0,0,0-0.1s0-0.1-0.1-0.2C131.3,62.1,131,62.1,130.9,62.3"/>
	<path class="st0" d="M132.1,60.3c-0.1-0.1-0.3,0-0.4,0c0.2,0.1,0.2,0.4,0.5,0.4c0-0.1,0-0.1,0-0.2
		C132.1,60.4,132.2,60.3,132.1,60.3"/>
	<path class="st0" d="M123.1,43.9c0.4,0.2,0.6,0.5,0.7,0.9c0.2,0.4-0.1,1,0.1,1.4c0.1,0.2,0.2,0.3,0.3,0.4c0.2,0.2,0,0.6,0.1,0.9
		c0.1,0.6,0.2,1.1,0.3,1.7c0.2-0.1,0.2,0.3,0.5,0.2c0,0.3,0.1,0.6,0.2,0.9s0.5,0.2,0.8,0.4c0.4,0.5,0.8,1.1,1.3,1.4
		c0.2,0.1,0.4,0.1,0.5,0.3c0,0.1,0,0.2,0.1,0.2c0.8,0.2,1.8,0.5,1.4,1.5c0.3-0.2,0.7-0.4,0.8-0.7c0.2-0.6,0.3-1.2,0-1.8
		c-0.2-0.3-0.6-0.4-0.7-0.8c-0.1-0.2,0-0.5,0-0.6c0-0.3-0.4-0.2-0.5-0.4c-0.2-0.4-0.3-1.1,0.5-1c0,0-0.1-0.2-0.1-0.3
		c-0.2,0-0.5,0-0.7,0s-0.2-0.3-0.2-0.4c-0.1-0.4,0.1-1-0.2-1.3c-0.4-0.2-0.8-0.3-1.1-0.5c-0.3-0.2-0.5-0.4-0.8-0.6
		c-0.2-0.1-0.5,0.2-0.7,0c-0.6-0.7-1.1-1.5-1.7-2.4c-0.2-0.3-0.7-0.3-1.1-0.2c-0.1,0,0,0.2-0.1,0.2c0.1,0,0.1,0,0.2,0
		C123.2,43.8,123.1,43.9,123.1,43.9"/>
	<path class="st0" d="M119.4,45.3c-0.3,0.4-0.2,0.9,0.1,1c0.4,0.2,1,0.2,1.5,0.1c0.3,0,0.4-0.3,0.6-0.6c0.3-0.4,1-0.2,1.5-0.4
		c-0.1,0.3,0.2,0.3,0.3,0.4c0-0.3,0-0.8-0.3-1c-0.5-0.3-0.5-0.7-0.7-1.1c-0.1-0.1-0.3,0.1-0.3,0.2c0,0.7-0.6,0.6-1.1,0.8v0.2
		c0,0-0.1,0-0.2,0c-0.1-0.1-0.1-0.1-0.1-0.3c-0.3,0-0.6,0-0.7,0.2C119.8,45,119.5,45,119.4,45.3"/>
	<path class="st0" d="M109.8,29.4c-0.4-0.8-1.1-1.6-0.9-2.7c1.3,0.4,2.4,0.2,3.7-0.2c0.9-0.3,2,0.2,2.9-0.4c0.1-0.1,0-0.4,0-0.7
		c-1.1,0.5-1.9-0.9-2.9-0.3c-1.2,0.7-2.5,1-3.8,1.3c-1,0.2-3.5,0.1-3.6,1.5c1.4,0,2.8,0.1,3.7,1.3C109,29.5,109.5,29.4,109.8,29.4"
		/>
	<path class="st0" d="M114,35.4c0.4,0.6,1,0.8,1.6,1c0.1-0.3-0.1-0.5-0.3-0.7C114.9,35.4,114.5,35.4,114,35.4"/>
	<path class="st0" d="M113,37.4c-0.2,0.1,0,0.4,0.2,0.6C113.3,37.8,113.6,37.2,113,37.4"/>
	<path class="st0" d="M112.1,36.2c0.1,0,0.2,0,0.2,0s0-0.1,0-0.2c0-0.5-0.5-0.6-0.8-0.6c0,0.1,0,0.3,0,0.3
		C111.7,35.9,111.8,36.1,112.1,36.2"/>
	<path class="st0" d="M115.7,40.9c0,0,0.2,0.1,0.2,0c0.1-0.1,0.2-0.2,0.1-0.4v0.1c-0.1-0.1,0.1-0.4-0.1-0.5c-0.1,0-0.2,0-0.2,0
		C115.5,40.3,115.7,40.6,115.7,40.9"/>
	<path class="st0" d="M117,40.9c0,0.2,0,0.3,0.1,0.5c0.1,0,0.2,0,0.2-0.1c-0.1-0.1-0.1-0.2-0.1-0.3C117.3,40.8,117,41,117,40.9"/>
	<path class="st0" d="M116.5,41.9c0.1,0.2,0.2,0,0.3-0.3c0,0,0,0,0-0.1c0,0,0.1,0,0.1,0.1l-0.1-0.1c-0.2-0.2-0.5-0.4-0.7-0.2
		C115.9,41.6,116.4,41.6,116.5,41.9"/>
	<path class="st0" d="M117,42c0.1,0.1-0.2,0-0.1,0.1c0.2,0.4,0.7,0.5,0.9,0.4c0.2-0.1,0.3-0.4,0.2-0.5C117.8,41.8,117.4,42,117,42
		L117,42z"/>
	<path class="st0" d="M118.9,42.9c0.2-0.1,0-0.2,0-0.3c-0.1-0.2-0.2-0.4-0.4-0.3c-0.1,0.1-0.3,0.4-0.1,0.6
		C118.5,42.9,118.7,43,118.9,42.9"/>
	<path class="st0" d="M119.5,44c0.1,0.1,0.3-0.1,0.4-0.2v-0.2c0.1,0,0.1,0,0.1-0.1c0.1-0.1,0-0.3-0.1-0.4c-0.1,0-0.3,0.1-0.4,0
		c0,0,0,0,0-0.1c-0.1-0.1-0.3-0.2-0.4-0.1c-0.2,0.2-0.2,0.4-0.1,0.6C119.1,43.8,119.3,43.9,119.5,44"/>
	<path class="st0" d="M118.4,44.9c0.1,0,0.2-0.1,0.2-0.2c0-0.2,0-0.3,0-0.5c0-0.1-0.1-0.1-0.2-0.1c-0.1,0.1-0.1,0.3-0.2,0.3
		C118.1,44.8,118.2,44.9,118.4,44.9"/>
	<path class="st0" d="M117.3,24.8C117.3,24.8,117.2,24.8,117.3,24.8c-0.1-0.1,0-0.2,0-0.2c-0.2-0.2-0.5-0.1-0.7-0.1
		C116.8,24.8,117,24.9,117.3,24.8"/>
	<path class="st0" d="M131,34.8c0.2,0.2,0.7-0.1,0.9,0.2c0.2,0.2,0.4,0.7,0.8,0.7c0.3,0,0.4-0.1,0.5-0.3c0.1-0.7-0.2-1.4-0.8-1.7
		c-0.6-0.2-1.3-0.2-1.9-0.2c-0.4,0-0.4,0.5-0.2,0.7C130.4,34.2,130.7,34.4,131,34.8"/>
	<path class="st0" d="M147.6,55.8c-0.4-0.5-0.5-1.2-0.8-1.6s-0.9-0.5-1.3-0.9c-0.1-0.2,0.2-0.7-0.1-0.9c-0.2-0.1-0.3-0.2-0.4-0.4
		c-0.2-0.6-0.5-0.9-1-1.2c0.1-0.7-0.5-1-1.1-1.2c0,0,0.1-0.2,0.1-0.3c0-0.3-0.4-0.4-0.6-0.4c-0.1-0.1-0.2,0-0.3-0.1
		c-0.3-0.4-0.8-0.7-0.9-1.1c-0.2-0.6-0.8-0.9-1.3-1.3c-0.2-0.1-0.4-0.6-0.4-0.6c-0.4,0-0.8,0-0.9-0.4c-0.1-0.7-0.7-1.2-1.2-1.6
		c-0.8-0.6-0.1-1.8-0.4-2.7c-0.1-0.4-0.5-0.4-0.8-0.4c-0.1,0-0.2-0.1-0.3-0.2c-0.3-0.6-0.1-1.2-0.4-1.7c-0.6-0.8-1.2-1.4-1.8-2.2
		c-0.4-0.4-0.9-0.3-1.3-0.4c-0.1,0-0.2-0.1-0.3-0.2s-0.2-0.3-0.3-0.5c-0.3-0.4-0.8-0.6-1.3-0.8c-0.8-0.4-1.7-0.2-2.6-0.3
		c-0.7,0-1.5,0.2-2,0.6c-0.6,0.5-1.3,0.7-2.1,0.9c-0.3,0.1,0.1,0.4,0,0.7c-0.2,0.3-0.6,0.6-0.4,0.9c0.1,0-0.2,0-0.1,0.1
		c0.1,0.2,0.5,0,0.7,0c0.3,0,0.4,0.4,0.5,0.5c0.4,0.4,0.7,0.7,0.9,1.2c0.1,0.1-0.2,0.5-0.1,0.6c0.4,0.5,0.4,0.9,0.4,1.4
		c0,0.2,0.5,0,0.6,0.1c0.6,0.3,0.8,1.2,0.6,1.8c-0.1,0.3-0.1,0.8,0.1,1.2c0.3,0.6,0.4,1.5,1,2c0.1-0.2,0.3-0.5,0.4-0.4
		c0.5,0.1,0.5-0.3,0.8-0.5c1-0.6,1.8,0.6,2,1.4c0.3,0.7,0,1.7,0.3,2.4c0.3,0.7,0.7,1.3,1.4,1.6c0.1,0.1,0.2,0.5,0.3,0.8
		c0.1,0.2,0.2,0.4,0.5,0.2c0.2-0.1,0.1-0.4,0.4-0.6c0.2-0.1,0.4,0.1,0.6,0.2c0.6,0.8,0.8,2.4,2,2.3c0,0.2,0.1,0.3,0.2,0.4
		c0.3,0.1,0.5-0.3,0.6,0c0.2,0.3,0.3,0.6,0.6,0.8c0.4,0.1,0.9,0,1.3,0.1c0.3,0.1,0.5,0.4,0.7,0.7c0.1,0.2,0.3,0.4,0.4,0.6
		c0.8,0.8,1.2,2.1,2.2,2.7c0.3,0.2,0.6,0.6,1.1,0.5c0.1,0,0-0.2,0.2-0.2c0.4,0,0.7-0.4,0.8-0.6c0.3-0.4,0.8-0.8,1.3-1.1v-0.2
		c0.4-0.3,0.9-0.4,1.2-0.7C148,56.4,147.8,55.9,147.6,55.8"/>
	<path class="st0" d="M131.4,53.8c0.1,0,0.2,0.1,0.3,0.1s0.2,0,0.2,0L131.4,53.8z"/>
	<path class="st0" d="M130.6,56.1c0.2,0.3,0.5,0.3,0.8,0.5s0.4,0.6,0.7,0.8c0.6,0.3,0.3-0.6,0.6-0.9c0.1-0.1,0.4,0,0.5-0.1
		c0.3-0.5-0.1-1.1-0.5-1.5c-0.3-0.3-0.6-0.8-1.1-1c-0.2-0.1-0.5-0.1-0.6,0.2c-0.2,0.4,0,0.9-0.2,1.3
		C130.8,55.6,130.6,55.9,130.6,56.1"/>
	<path class="st0" d="M133.7,58c-0.2,0.7-0.1,1.5-0.2,2.4c-0.1,0.4-0.7,0.3-0.9,0.7c-0.1,0.2-0.2,0.5-0.2,0.8
		c0.1,0.5,0.7,0.5,1.1,0.7c1,0.5,1.9,1.2,2.5,2.2c0.2,0.3,0.3,0.8,0.6,1.1c0.3,0.3,0.8,0.3,0.9,0.8c0,0.2,0.4,0.3,0.6,0.2
		c0.5-0.4,0.5-1.2,0.1-1.7c-0.2-0.2-0.5-0.5-0.5-0.8c0-1.1-0.4-2.1-1-3.1c-0.4-0.5-1-0.8-1.4-1.3c0-0.1-0.2-0.3-0.1-0.4
		c0.1-0.3,0.4-0.4,0.5-0.7c0.1-0.6-0.6-0.8-0.7-1.3c0,0-0.2,0-0.3,0l0.3,0.1C134.5,57.3,133.9,57.5,133.7,58"/>
	<path class="st0" d="M139.5,63.4c-0.1-0.3,0-0.7,0-1c0-0.6-0.7-0.7-1.2-0.7c-0.2,0-0.5-0.1-0.5,0.2c0,0.2,0,0.5,0.1,0.8
		c0.9,1.1,0.9,2.6,1.3,3.9c0.1,0.5,1,0.1,1.2-0.5c0.1-0.3,0.1-0.6,0.1-0.8c-0.1-0.3-0.4-0.5-0.5-0.8
		C139.8,64.1,139.6,63.8,139.5,63.4"/>
	<path class="st0" d="M138.1,60c-0.4,0.3,0.2,0.7,0.1,1.1h0.2c0.3,0.1,0.3-0.2,0.3-0.3c-0.5,0-0.4-0.5-0.4-0.8
		C138.2,60,138.1,59.9,138.1,60"/>
	<path class="st0" d="M137.8,58.8c0-0.3,0-0.5-0.3-0.6c-0.1,0.4-0.5,0.3-0.7,0.5c-0.3,0.2,0,0.6,0.3,0.7c0.1,0,0.1,0.1,0.1,0.1
		c0.6,0.2,1-0.2,0.8-0.8C138.1,58.8,137.9,58.8,137.8,58.8"/>
	<path class="st0" d="M135.8,56.9c0.5,0.3,0,0.8,0.4,1c0.3,0.2,0.8,0.3,1.1,0c0.2-0.2,0-0.5-0.4-0.6c-0.2,0-0.2-0.3-0.1-0.6
		c-0.1,0-0.2-0.1-0.3-0.1c-0.4-0.3,0.4-0.5,0.1-0.8c-0.1-0.1,0-0.2-0.1-0.2c-0.1-0.1-0.3,0-0.4,0.2c-0.1,0.2,0.1,0.4,0,0.6
		C136.1,56.6,135.6,56.8,135.8,56.9"/>
	<path class="st0" d="M135.6,54.4c-0.2-0.1-0.6,0.1-0.8-0.3c0,0-0.2,0-0.3,0s-0.1,0.1-0.1,0.1c-0.1,0.2-0.3,0.3-0.1,0.5
		s0.3,0.3,0.4,0.5c0.1,0.3,0.5,0,0.6,0.2s0.3,0.3,0.4,0.2c0.2-0.1,0-0.4,0.1-0.6c-0.1,0.1-0.1-0.2-0.2-0.1
		C135.7,54.8,135.8,54.5,135.6,54.4"/>
	<path class="st0" d="M106.9,73.1h0.2c0-0.1,0-0.2,0.1-0.3c0.1-0.2,0-0.3-0.1-0.4c-0.1-0.2-0.4,0-0.3,0.3h0.2
		C106.8,72.8,106.8,72.9,106.9,73.1"/>
	<path class="st0" d="M138.5,68c-0.5-0.2-1,0.1-1.5,0.4c-1,0.5-1.1,1.8-1.7,2.5c-0.4,0.5-0.9,0.7-1.5,0.7c-0.1,0-0.3-0.1-0.3-0.3
		c0-0.3-0.1-0.6,0.1-0.8c0.2-0.1,0.4-0.3,0.6-0.5c0.3-0.4,0.1-0.9-0.1-1.3c-0.2-0.9-1.2-1.4-2-1.3c-0.8,0.2-1.4,1.1-1.8,1.8h-0.2
		c-0.3-0.4-0.8-0.6-1-1c-0.1,0-0.1-0.1,0-0.2c0.3,0.2,0.6,0.7,1,0.5s0.1-0.7-0.2-0.8c-0.3-0.1-0.6-0.4-0.9-0.4
		c-0.3,0-0.6-0.4-0.7-0.7c-0.1-0.5-0.2-1.1-0.6-1.2c-0.4-0.2-0.8-0.2-1.3-0.5c-0.2-0.1-0.4,0.1-0.6,0c0.1-0.1,0-0.4,0.1-0.4
		c0.5-0.1,1.2-0.1,0.8-0.6c-0.1-0.3-0.4-0.6-0.8-0.3c-0.1,0-0.3,0-0.3,0.2c-0.1,0.1-0.1,0.2-0.1,0.3c-0.1,0.2,0.2,0.6,0,0.8
		c-0.3,0.2-0.8,0.2-1.2,0.5c0,0-0.2,0-0.3,0c-0.4-0.1-0.9-0.5-1.1-0.4c-0.2,0.3-0.3,0.7-0.6,0.9c-0.3,0.1-0.6,0.1-0.9,0.3
		c-0.5,0.2-0.2,0.8,0,1.3c0.1,0.1,0,0.4-0.1,0.5c-0.3,0.2-0.4-0.2-0.5-0.4c-0.1-0.4-0.3-0.9-0.3-1.4s0.6-0.8,0.7-1.2
		c0.1-0.3,0.2-0.6,0-0.9s-0.6-0.5-0.9-0.4c-0.8,0.2-1.1,1.7-2,1.3c-0.4-0.2-0.8-0.6-1.3-0.9c-0.3-0.2-0.6-0.4-0.8-0.1
		c-0.6,0.5-1.4,0.7-2,1s-1.1,0.9-1.4,1.6c-0.4,0.8-1.8,1.2-2.3,0.3c-0.2-0.5-0.7-0.8-1.2-0.8c-0.5,0.1-0.6,0.7-1.1,0.8
		c-0.4,0.1-0.6-0.1-0.8-0.3c0-0.1,0-0.2,0-0.2c0.7-0.6,1.4-1,2.3-1.3c0.4-0.2,0.5-0.6,0.3-1c0-0.1,0-0.2-0.1-0.3
		c0-0.2-0.1-0.5-0.1-0.5c-1.1,0.1-2,0.8-2.5,1.8c-0.1,0.1-0.1,0.3-0.2,0.3c-0.7-0.1-1.4,0.3-1.9-0.1c-0.1-0.1-0.3-0.8-0.4-0.8
		c-0.3,0.3-0.4,0.6-0.7,1c-0.1,0.1-0.2,0.2-0.4,0.4c-0.4,0.6,0.4,1.2,0.2,1.7c-0.1,0.2-0.8,0.2-1.1,0.4c-0.2,0-0.2,0.4-0.2,0.6
		s0.2,0.2,0.4,0.3c0.4,0.4,0.4,1,0.9,1.3c0.6,0.3,1.3,0.1,2.1,0.3c0.5,0.1,0.8,0.4,1,0.9c0.1,0.3,0.5,0.4,0.5,0.8
		c0,0.2,0.2,0.3,0.4,0.4c0.2,0.1,0.5-0.2,0.7,0c0.3,0.1,0.2,0.5,0.3,0.7c0.1,0.5-0.1,1,0.4,1.5c0.2,0.2-0.2,0.7-0.4,0.9
		c-0.1,0.1-0.4,0.1-0.5,0.2c-0.1,0.4,0,0.8,0.2,1.2c0.2,0.2,0.4,0,0.5,0.1c0.4,0.5,0.5,1,0.8,1.4c0.1,0.2,0.3,0.4,0.5,0.5
		c-0.2,0-0.3,0.3-0.2,0.4c0.1,0.1,0.4,0.3,0.6,0.1c0.2-0.2,0.5-0.3,0.8-0.5c0.2-0.2,0.4-0.1,0.6-0.2c0.2,0.2,0.3,0.5,0.2,0.7
		c-0.4,0.4-1.1,0.1-1.5,0.4c-0.3,0.1-0.6,0.1-0.8,0.3c-0.1,0.2,0,0.5,0.3,0.5c0.9,0.2,0.2,1.6-0.3,2.3c-0.1,0.1,0,0.4,0,0.7
		c0,0.1-0.2,0.2-0.3,0.2c-0.9,0.1-1.8-0.2-2.7,0.1c-0.3,0.1-0.4,0.5-0.6,0.8h0.2c-0.2,0-0.2,0.3-0.3,0.4c-0.1,0.1,0,0.5-0.1,0.6
		c-0.8,0.9-0.9,2-1.1,3c0,0.3,0.4,0.5,0.6,0.5s0.5-0.2,0.7-0.2c0.4,0,0.3,0.7,0.5,1s0.8,0.4,0.8-0.1c0.1-0.4,0.1-0.8,0.2-1.1
		c0.1-0.4-0.3-0.8-0.4-1.2c-0.1-0.4,0.1-0.7,0.3-1c0.2-0.1,0.4,0,0.5,0.3c0.1,0.2,0.1,0.5,0.2,0.8s-0.1,0.6,0,0.8
		c0.2,0.2,0.2,0.5,0.2,0.7c0,0.1-0.2,0.2-0.2,0.4c-0.1,0.3,0.1,0.7-0.2,0.8c-0.3,0.2-0.2,0.6-0.6,0.6c-0.7,0-1.6-0.3-1.4-1.1
		c-0.3,0-0.6,0-0.7,0.2c-0.2,0.3,0,0.8-0.2,1.1c-0.3,0.3-0.4,0.7-0.7,1c-0.1,0.1,0.1,0.1,0,0.3c-0.4,0.5-0.8,0.6-1.3,1
		c0,0,0,0,0,0.1c-0.3,0.2-0.8-0.1-0.9,0.2c-0.2,0.4,0.4,0.7,0.6,1c0.1,0.3,0.1,0.6-0.3,0.6c-0.5,0.1-1,0-1.6,0
		c0,0.2-0.1,0.1-0.1,0.2c-0.1,0.5,0,0.9-0.4,1.3c-0.2,0.3,0.1,0.7,0.3,0.9c0.2,0.3,0.3,0.7,0.6,0.8c0.2,0,0.4,0.3,0.6,0.2
		c0.5-0.1,0.8-0.3,1-0.8c0.1-0.3,0.5,0,0.9,0c0.1,0,0.3-0.1,0.3-0.2c0.2-0.3,0-0.7,0.1-0.9c0.5-0.5,1-1,1.7-1.4
		c0.2-0.2,0.5-0.4,0.9-0.3c0.2,0.1,0.4,0.2,0.7,0.3c0.2,0.1,0.5,0.3,0.7,0.4c0.1,0.1,0.3,0.1,0.4,0.2c0.4,0.2,0.7,0.7,1.2,1
		c0.1,0,0-0.2,0.2-0.1c0-0.4-0.1-0.8-0.3-1.1c-0.3-0.4-0.7-0.6-1.1-0.9c-0.1-0.1-0.1-0.4,0.1-0.6c0-0.1,0.2-0.1,0.2,0
		c0.3,0.2,0.5,0.2,0.8,0.4c0.5,0.2,0.4,1,0.9,1.3c0.3,0.1,0.4,0.5,0.7,0.6c0.4,0.1,1,0,1.2-0.5c0.2-0.3-0.1-0.4-0.3-0.6
		c-0.4-0.3,0.2-0.4,0.4-0.7c0.3-0.4,0-0.7,0-1.1c0-0.2,0.1-0.3,0.2-0.3c0,0,0-0.1,0.1-0.1c0.2-0.5,0-1,0.2-1.4
		c0.1-0.1,0.2-0.1,0.2,0c0.1,0.2,0.4,0.4,0.6,0.3c0.4-0.1,0.7-0.3,0.9-0.6c0.3-0.4,1-0.2,1.2,0.2c0.1,0.3,0,0.7-0.3,0.8
		c-0.8,0.1-1.5,0.5-2.1,0.9c-0.1,0.1-0.2,0.1-0.2,0.2c-0.3,0.2-0.5,0.5-0.3,1c0,0.2-0.2,0.4-0.4,0.6c0.3,0.1,0.3,0.5,0.6,0.6
		c0.5,0.1,1,0.1,1.4-0.2c0.1-0.2,0.2-0.4,0.1-0.7c0.3,0,0.6-0.3,0.9-0.4c0.7-0.1,1.1,0.7,0.9,1.3c0,0.1-0.2,0.1-0.3,0.2
		c-0.4,0.6-0.6,1.2-1.2,1.4c-0.9,0.5-2,0.3-2.8,0.8c-0.3,0.2-0.4,0.7-0.9,0.9c-0.4,0.1-0.9,0.3-1.3,0v0.1c0,0.3-0.9,0.1-1.4-0.1
		c-0.1,0-0.1-0.5-0.3-0.6c-0.2-0.1-0.5,0-0.5-0.1c-0.1-0.1,0-0.3-0.1-0.4c-1.1-0.2-2.1,0.1-3.1,0c-0.3,0-0.2,0.4-0.5,0.5
		c-0.2,0.1-0.4,0.3-0.6,0.4c-0.4,0.2-0.9,0.5-1.4,0.3c-0.5,0.2-0.9,0.2-1.3,0.3c-0.7,0.1-1.1,0.7-1.6,1.1c-0.4,0.3-0.9,0.3-1.4,0.3
		c-0.1,0-0.1,0.2-0.2,0.2c-0.7,0.2-1.4,1.1-1.8,1.9c-0.1,0.2,0,0.5-0.1,0.7c-0.4,0.6-0.6,1.2-1.1,1.7c-0.1,0.1-0.1,0.2,0,0.3
		c0.6,0.8,1.3,1.3,1.9,2.2c0.1,0.2,0.4,0.2,0.5,0.4c0.2,0.5,0.6,1,0.8,1.5c0.4,0.7,1.4,0.9,2.2,0.7c0.3-0.1,0.7,0.2,1,0.3
		c1,0.1,2,0.3,2.9-0.2c1.4,0.4,2.8-0.2,4,0.4c0.2,0.1,0.2,0.5,0.4,0.8c0.3,0.5,0.6,1.1,1.2,1.5c0.4,0.3,1,0.5,1.6,0.6
		c0.2,0,0.2,0.4,0.3,0.6c0.2,0.2,0.1,0.6,0.3,0.8c0.3,0.3,0.6,0.5,0.5,0.9c0,0.5-0.6,0.9-0.2,1.6c0.1,0.2,0,0.5,0.1,0.7
		c0.8,0.8,1.5,1.5,2.4,2.2c0.1,0.1,0.3,0.2,0.2,0.4c0.4,0.1,0.4,0.5,0.7,0.7c0.2,0.2,0.1,0.6,0.3,0.8c0.3,0.4,0.7,0.8,1,1.1
		c0.5,0.4,1.1,0.3,1.7,0.4c0.1,0.1,0.3,0.2,0.5,0.2c0.5,0.2,1.1,0.2,1.6-0.1c0.2-0.2,0.5-0.6,0.7-0.8c0.4-0.3,1.1-0.3,1.6-0.4
		c0.1,0,0.3-0.1,0.3-0.2c0.1-0.3,0.4-0.5,0.3-0.8c0.4,0,0.7-0.2,1.1-0.4c0.7-0.3,1.2-1,1.8-1.6c0.6-0.6,1.7-0.3,2-1
		c0.4-0.7-0.1-1.6,0.2-2.3c0.2-0.4,0.4-0.8,0.4-1.2c0.1-0.7,0.1-1.4,0-2c0-0.4-0.4-0.8-0.4-1.2c0-0.3,0.5-0.3,0.6-0.5
		c0.2-0.5,0.5-1.1,0.8-1.6c0-0.1,0.2-0.2,0.4-0.3c0.3-0.2,0-0.5,0.1-0.7c-0.2-0.1-0.3-0.3-0.4-0.4c-0.6-0.8-1.1-1.6-2-2
		c-0.2-0.1-0.3-0.3-0.4-0.5c-0.1-0.1,0-0.3-0.1-0.4c-0.2-0.2-0.1-0.4-0.2-0.6h0.2l0,0c-0.1,0-0.1-0.1-0.1-0.1
		c0.2-0.5,0.5-1.1,0.9-1.4c0.1-0.1,0.5-0.1,0.5-0.3c0.1-0.5,0.1-1-0.1-1.4c-0.4-0.6,0-1.2-0.1-1.8c-0.1-1.1-0.1-2.1-0.6-3.1
		c-0.1-0.3-0.4-0.5-0.8-0.4c-0.2,0-0.2,0.3-0.3,0.4c-0.1,0.2-0.2,0.4-0.2,0.7c-0.2,0.4-0.7,0.5-0.8,0.9c-0.1,0.2-0.1,0.5-0.2,0.6
		c-0.2,0.2-0.3,0.5-0.6,0.5c-0.4,0.1-0.8,0.2-1.2,0.3c-0.4,0.1-0.9,0.1-1.3,0c-2.3-0.7-4.3-1.5-6.6-2.2c0,0,0-0.1,0-0.2
		c0.4-0.2,0.8,0.1,1.1,0c0.3,0-0.1-0.4,0.1-0.4c0.5,0.1,0.9,0.4,1.3,0.6c1,0.3,1.9,0.4,2.9,0.7c0.8,0.2,1.3,0.7,2.1,0.9
		c0.6,0.2,1.1-0.3,1.6-0.5c0,0,0-0.2,0-0.3c0.2-0.4,0.6-0.6,0.8-1c0.1-0.3-0.1-0.7,0.1-1c0.1-0.1,0.3-0.3,0.4-0.5c0.1-0.5,0-1,0-1.5
		c0.3,0,0.5-0.3,0.4-0.4s-0.1-0.2-0.1-0.3c0-0.3,0-0.6,0.1-0.9c0.2-0.7-0.1-1.4-0.4-2.1c-0.2-0.3-0.6-0.4-0.9-0.3
		c-0.1,0.1-0.2,0.3-0.2,0.3c-0.4,0-0.7,0.2-0.9,0.3c-0.3,0.2-0.3,0.8-0.5,1c-0.4,0.4-0.9,0.7-1.4,1c-0.4,0.2-0.9,0-1-0.3
		c-0.4-0.9,0.9-0.8,1.6-0.9c0.1-0.1,0.2-0.2,0.3-0.3c0.2-0.4,0.3-0.8,0.6-1c0.2-0.1,0.5-0.1,0.7-0.1c0.2,0.1,0.4-0.3,0.7-0.4
		c0.2-0.1,0.2-0.4,0.2-0.7c0.1-0.4,0.6-0.6,0.7-0.9c0.4-0.7,0.4-1.8,1-2.4c0.4-0.3,0.2,0.5,0.3,0.7c0.2,0.3,0.9,0.3,1.2,0
		c0.2-0.2,0-0.7,0.3-0.9c0.2,0,0.4,0,0.5,0c0.3,0.2,0.6,0.5,0.9,0.3c0.2-0.1,0.4-0.4,0.6-0.5c0.3-0.1,0.7,0,1-0.2
		c0.8-0.4,2.6,0.2,2.5-0.6c-0.2-1.3-1.2-2.4-2.4-2.9c-0.9-0.5-0.6-1.7-1.4-2.5c-0.2-0.1-0.1-0.5-0.3-0.7c-0.1-0.1-0.2-0.1-0.3-0.2
		s-0.3-0.2-0.3-0.3c0.1-0.7-0.2-1.3,0.2-1.9c0.2-0.3,0.6-0.4,0.8-0.6c0.3-0.3,0.8-0.4,0.8-0.8c0-0.5,0-1.1,0.1-1.6
		c0-0.2,0.4-0.4,0.6-0.4c0.9,0,2,0.3,2.9-0.3c0.2-0.2,0.3-0.5,0.4-0.7c0.7-1,1.7-1.8,1.7-3.1c0-0.2,0.4-0.3,0.4-0.5
		C138.6,68.2,138.6,68,138.5,68 M120.1,89.9c0,0.1,0,0.2,0,0.2c-0.2,0.2-0.5,0.1-0.6-0.2c-0.1-0.2-0.3-0.5-0.5-0.7
		c-0.2,0-0.5,0-0.6,0.2c-0.2-0.2-0.5,0-0.7-0.1c0.1-0.4-0.3-0.4-0.5-0.7c-0.2-0.2-0.2-0.7,0.2-0.8c0.3-0.1,0.5,0.1,0.6,0.4
		c0-0.1-0.1-0.1-0.1-0.1c0,0.1-0.1,0.2,0,0.3c0.2,0.2,0.5-0.1,0.8,0.1s0.8-0.1,1.1,0.1c0,0,0,0.2,0.1,0.2c0.4,0,0.6,0.4,0.5,0.7
		C120.3,89.8,120.2,89.9,120.1,89.9"/>
	<path class="st0" d="M82.5,160.5c5.2-7.8,21-16,36.5-16c15.6,0,32.4,9,39,4.2c0,0-6.8,5.9-20.5,5.9s-18.9-6.9-28.5-6.9
		c-9.5,0-19.6,7.7-23.8,14.2L82.5,160.5z"/>
	<path class="st0" d="M131.5,143.4c0,0,4.5-2.7,6.9-7.7s8.6-12.9,14.9-17.8c0,0-7.1,22.3-14.3,23.3c0,0-1.2,0.7,0.9,0.3
		c2.1-0.3,11.3-3.8,14.6-4.3c3.3-0.6,11.3-2.4,13.5-4.5c1.8-1.8,3.1-1.5,3.1-1.5s-9,14.9-25.1,14.9
		C146.1,145.9,138.1,145.3,131.5,143.4"/>
	<path class="st0" d="M150.6,135.6c0,0,1.7-2.6,2.1-7.1c0.3-4.4,3-14.6,10.8-25.8c0,0,1.1,17.6-7.7,28.4c0,0-0.5,1.5,0.6,0.4
		s6.7-7.8,18.6-15.9c0,0,6.2-5.1,6.6-6.8C181.5,109,176.7,133.9,150.6,135.6"/>
	<path class="st0" d="M165.7,119c0,0,0.7-2.8,0.7-5.2c0-2.4-1-10.6-1-14.2c0-3.7,0.4-10.4,3.1-15c0,0,0,4.1,0.9,5.9s1.9,9,1.9,9.9
		s-0.2,7.1-1.8,10.3c0,0,1.2-0.6,2.4-3c1.3-2.4,4.3-6.8,9-11.5c4.6-4.7,5.6-8.9,5.6-8.9s1.1,8.1-4.9,16.7c-6,8.7-8.5,7.2-11.8,10.7
		C169.9,114.6,166.1,119.2,165.7,119"/>
	<path class="st0" d="M175.1,99.3c0,0-0.2-5-1.1-6.6c-1-1.6-6.3-11.4-5.2-24c0,0,0.9-0.8,2.6,4.1c1.7,4.9,4.1,6.3,4.9,11.2
		c0.8,4.9,0.8,6.9,0.8,6.9s0.6,0.7,0.6,0.1s0.6-7.1,3.3-13.1s6.3-11.7,6-15.7c0,0,1.6,0.1,1.3,6.6S186.3,86.5,175.1,99.3"/>
	<path class="st0" d="M178.1,79.5c0,0-2-4.5-3.3-6c-1.4-1.4-10.8-15.2-11.6-21.4c0,0,0.8-0.4,1.7,1.1c0.9,1.6,5.5,6.1,6.2,6.8
		c0.8,0.7,5.6,5.8,6,11.2c0,0,0.5,0.6-0.5-8.5c-0.9-9,3-14.9-0.2-21.3c0,0,4.4,0.7,6.8,19.3c0,0-0.1,6.6-3.5,14.6
		C179.8,75.3,178.6,79.5,178.1,79.5"/>
	<path class="st0" d="M174.6,59.1c0,0-3.5-3.6-6.4-5.3c-2.8-1.7-11.7-10.5-13.2-17.3c0,0,0.6-0.8,3.4,3c2.2,2.9,4.4,1.5,10.9,9.7
		c0,0,0.9,1.8,1.4,1.7c0.4-0.1-0.2-1.9-0.2-1.9s-1.3-5.1-1.4-6.9c-0.1-1.8-2.7-11.4-3.6-12.7c0,0,8.7,5,10,19
		C175.5,48.3,175.1,58.5,174.6,59.1"/>
	<path class="st0" d="M167.1,44.1c0,0,0.6-12.3-15.6-18.5c0,0,5.6,11.5,9.8,14.2C165.6,42.5,167.1,44.1,167.1,44.1"/>
	<path class="st0" d="M125.9,160.5c-5.2-7.8-21-16-36.5-16s-32.4,9-39,4.2c0,0,6.8,5.9,20.5,5.9s18.9-6.9,28.5-6.9
		c9.5,0,19.6,7.7,23.8,14.2L125.9,160.5z"/>
	<path class="st0" d="M76.9,143.4c0,0-4.5-2.7-6.9-7.7s-8.6-12.9-14.9-17.8c0,0,7,22.3,14.3,23.3c0,0,1.1,0.7-0.9,0.3
		c-2.1-0.3-11.4-3.8-14.6-4.3c-3.3-0.6-11.4-2.4-13.5-4.5c-1.8-1.8-3.1-1.5-3.1-1.5s9,14.9,25.1,14.9
		C62.4,145.9,70.3,145.3,76.9,143.4"/>
	<path class="st0" d="M57.8,135.6c0,0-1.7-2.6-2-7.1c-0.3-4.4-3.1-14.6-10.8-25.8c0,0-1.1,17.6,7.6,28.4c0,0,0.6,1.5-0.5,0.4
		s-6.7-7.8-18.6-15.9c0,0-6.2-5.1-6.6-6.8C26.8,109,31.7,133.9,57.8,135.6"/>
	<path class="st0" d="M42.7,119c0,0-0.7-2.8-0.7-5.2c0-2.4,1-10.6,1-14.2c0-3.7-0.3-10.4-3.2-15c0,0,0,4.1-0.9,5.9s-1.9,9-1.9,9.9
		s0.2,7.1,1.8,10.3c0,0-1.1-0.6-2.4-3c-1.2-2.4-4.3-6.8-8.9-11.5s-5.7-8.9-5.7-8.9s-1.1,8.1,4.9,16.7c6,8.7,8.5,7.2,11.8,10.7
		C38.5,114.6,42.3,119.2,42.7,119"/>
	<path class="st0" d="M33.3,99.3c0,0,0.2-5,1.1-6.6c0.9-1.6,6.4-11.4,5.2-24c0,0-0.9-0.8-2.6,4.1c-1.7,4.9-4.1,6.3-4.9,11.2
		c-0.8,4.9-0.8,6.9-0.8,6.9s-0.6,0.7-0.6,0.1s-0.6-7.1-3.3-13.1s-6.4-11.7-6-15.7c0,0-1.6,0.1-1.4,6.6
		C20.4,75.3,22.1,86.5,33.3,99.3"/>
	<path class="st0" d="M30.3,79.5c0,0,1.9-4.5,3.3-6c1.4-1.4,10.7-15.2,11.6-21.4c0,0-0.8-0.4-1.7,1.1c-0.9,1.6-5.4,6.1-6.2,6.8
		c-0.8,0.7-5.5,5.8-6,11.2c0,0-0.4,0.6,0.5-8.5c0.9-9-2.9-14.9,0.2-21.3c0,0-4.4,0.7-6.8,19.3c0,0,0.1,6.6,3.5,14.6
		C28.6,75.3,29.8,79.5,30.3,79.5"/>
	<path class="st0" d="M33.7,59.1c0,0,3.5-3.6,6.4-5.3c2.8-1.7,11.7-10.5,13.3-17.3c0,0-0.6-0.8-3.4,3c-2.2,2.9-4.4,1.5-10.9,9.7
		c0,0-0.9,1.8-1.4,1.7c-0.5-0.1,0.2-1.9,0.2-1.9s1.3-5.1,1.3-6.9c0.1-1.8,2.7-11.4,3.7-12.7c0,0-8.8,5-10,19
		C33,48.3,33.3,58.5,33.7,59.1"/>
	<path class="st0" d="M41.3,44.1c0,0-0.6-12.3,15.5-18.5c0,0-5.6,11.5-9.8,14.2C42.8,42.5,41.3,44.1,41.3,44.1"/>
</g>
</svg>
